<svg id="Layer_2" data-name="Layer 2" xmlns="http://www.w3.org/2000/svg" viewBox="0 0 208 68"><path d="M88,43.865l15.07913-23.41953H93.72319l-3.17474,4.84952-1.37917-.24834L90.04709,18c2.88241.124,5.47166.1657,7.01739.1657H109.9716l.37645.99461L95.68615,41.99968h11.27812a10.80141,10.80141,0,0,0,3.46706-.37271l.334.62147A12.02181,12.02181,0,0,1,107.758,45.5232H88Z" fill="#111827"/><path d="M113.68679,35.49192c0-6.75653,3.46705-11.27465,10.48444-11.27465A10.56715,10.56715,0,0,1,132.442,25.5437l-1.58737,4.933-1.086-.04174a4.81386,4.81386,0,0,0-5.1377-4.47638c-3.50869,0-5.38838,2.77681-5.4725,7.41931h6.30782c.29233-.70453.543-1.40906.79369-2.1136h1.58737V37.0671l-1.16929.12438c-.50136-.66321-1.04436-1.28511-1.54572-1.90658h-5.88975c.45888,5.18134,3.17474,7.33668,6.93411,7.33668,2.79829,0,4.63634-1.65783,5.93138-3.68921l.877.37314a8.70293,8.70293,0,0,1-8.81379,6.964C117.82176,46.26947,113.68679,42.12406,113.68679,35.49192Z" fill="#111827"/><path d="M151.86432,50V30.06182c0-2.52848-1.086-3.19169-2.84077-3.19169a9.07479,9.07479,0,0,0-4.678,1.53386l-.50136.29008V41.70961a31.04624,31.04624,0,0,0,.209,3.81359h-7.18479V44.03107c.543-.4562,1.16928-.87066,1.75392-1.32643V27.74078c-.62627-.45578-1.29419-.912-1.87968-1.36775v-.95371c2.17285-.41446,4.34486-.87023,6.51687-1.28469l.58464.24876v2.36236l.71041-.4971a15.32832,15.32832,0,0,1,7.72779-2.4041c3.55033,0,4.84537,1.82353,4.84537,5.7615V35.6163c0,4.18672-.12576,7.75155-.87781,10.44573A11.85644,11.85644,0,0,1,152.95032,50Z" fill="#111827"/><path d="M162.05389,34.95308c0-7.62676,4.84538-11.10853,10.90252-11.10853,7.22643,0,10.60936,4.84952,10.60936,11.27465,0,7.75114-4.887,11.15027-10.86,11.15027C165.43767,46.26947,162.05389,41.41953,162.05389,34.95308ZM173.666,44.15545c3.21637,0,4.30323-2.57022,4.30323-6.67389,0-8.58005-2.71586-11.56473-6.01551-11.56473-3.21637,0-4.344,2.65286-4.344,6.71521C167.60967,41.25383,170.074,44.15545,173.666,44.15545Z" fill="#111827"/><path d="M200.02238,43.16041a12.71011,12.71011,0,0,1-8.22916,3.10906,2.98034,2.98034,0,0,1-2.67337-1.11941,9.82508,9.82508,0,0,1-1.75477-6.79785,5.75829,5.75829,0,0,1,3.00733-2.65285,16.42219,16.42219,0,0,1,4.84623-1.03636,16.94776,16.94776,0,0,1-6.85083-7.171,14.46889,14.46889,0,0,1,2.59009-1.82394,17.84583,17.84583,0,0,1,7.56039-1.69957c4.84538,0,6.72506,2.03138,6.72506,5.88629V42.45588c0,.74628.25068,1.16073.877,1.16073a3.36248,3.36248,0,0,0,1.37833-.37314L208,44.77692l-.83532.49752a7.73454,7.73454,0,0,1-3.96842.995C201.10838,46.26947,200.14729,45.23312,200.02238,43.16041Zm-3.04982-9.03624c1.04436.58015,2.13037,1.16073,3.00733,1.53387V30.84941c0-3.233-1.21092-4.06192-4.30238-4.06192a12.08741,12.08741,0,0,0-5.13769,1.03635A16.6704,16.6704,0,0,0,196.97256,34.12417ZM193.882,42.37282c.2082.33182.50052.53884,1.2942.53884a10.39218,10.39218,0,0,0,4.80374-1.49213V36.86009a31.7028,31.7028,0,0,1-3.17473-1.36817,11.78305,11.78305,0,0,0-3.46621.912c-.37645.20744-.50136.49752-.50136,1.57519A7.51485,7.51485,0,0,0,193.882,42.37282Z" fill="#111827"/><path d="M50,0H18A18,18,0,0,0,0,18v8A10,10,0,0,0,10,36l3.93927-.00006A20.06594,20.06594,0,0,1,32.79156,48.65845q.10365.27246.20069.54828a1.06626,1.06626,0,0,0,2.0155,0q.09705-.27576.20069-.54828A20.06022,20.06022,0,0,1,54.05652,36h3.944A9.99957,9.99957,0,0,0,68,26V18A18,18,0,0,0,50,0ZM64,26a6,6,0,0,1-6,6H54.06073A20.06582,20.06582,0,0,1,35.20856,19.34161q-.10374-.27255-.20081-.54846a1.06626,1.06626,0,0,0-2.0155,0q-.09705.27585-.20081.54846A20.06428,20.06428,0,0,1,13.94037,32h-3.943A5.99774,5.99774,0,0,1,4,26V18A14,14,0,0,1,18,4H50A14,14,0,0,1,64,18Z" fill="#111827"/><path d="M64,50A14.01572,14.01572,0,0,1,50,64H18A14.01572,14.01572,0,0,1,4,50V40.822a15.99833,15.99833,0,0,1-4-2.35187V50A18.02063,18.02063,0,0,0,18,68H50A18.02094,18.02094,0,0,0,68,50V38.47009A16.00014,16.00014,0,0,1,64,40.822Z" fill="#111827"/><path d="M42.55371,16.13623c.04492.12695.08594.24023.12891.35254A12.07945,12.07945,0,0,0,54.06055,24H56V18a6.00657,6.00657,0,0,0-6-6H39.5791A9.06038,9.06038,0,0,1,42.55371,16.13623Z" fill="#f59e0b"/><path d="M50,56a6.00657,6.00657,0,0,0,6-6V44H54.05664a12.07721,12.07721,0,0,0-11.37207,7.50293l-.124.3418A9.09753,9.09753,0,0,1,39.56635,56Z" fill="#10b981"/><path d="M18,56H28.431a9.05713,9.05713,0,0,1-2.98468-4.13672c-.0459-.13086-.08643-.24219-.12891-.35254A12.08047,12.08047,0,0,0,13.93945,44H12v6A6.00657,6.00657,0,0,0,18,56Z" fill="#ef4444"/><path d="M12,24h1.94043a12.07645,12.07645,0,0,0,11.374-7.50342l.127-.34717A9.09432,9.09432,0,0,1,28.42285,12H18a6.00657,6.00657,0,0,0-6,6Z" fill="#8b5cf6"/></svg>